<svg width="272" height="227" viewBox="0 0 272 227" fill="none" xmlns="http://www.w3.org/2000/svg">
<g opacity="0.1">
<circle cx="136" cy="13" r="12" fill="#01182E" stroke="#FDFBFC" stroke-width="2"/>
<circle cx="56" cy="78" r="12" fill="#01182E" stroke="#FDFBFC" stroke-width="2"/>
<circle cx="100" cy="139" r="12" fill="#01182E" stroke="#FDFBFC" stroke-width="2"/>
<circle cx="216" cy="78" r="12" fill="#01182E" stroke="#FDFBFC" stroke-width="2"/>
<circle cx="172" cy="139" r="12" fill="#01182E" stroke="#FDFBFC" stroke-width="2"/>
<circle cx="259" cy="139" r="12" fill="#01182E" stroke="#FDFBFC" stroke-width="2"/>
<circle cx="230" cy="214" r="12" fill="#01182E" stroke="#FDFBFC" stroke-width="2"/>
<circle cx="114" cy="214" r="12" fill="#01182E" stroke="#FDFBFC" stroke-width="2"/>
<circle cx="13" cy="139" r="12" fill="#01182E" stroke="#FDFBFC" stroke-width="2"/>
<line x1="125.316" y1="20.3879" x2="66.3155" y2="68.3879" stroke="white"/>
<line x1="47.4025" y1="88.2966" x2="19.4025" y2="126.297" stroke="white"/>
<line x1="64.4012" y1="88.7016" x2="93.4012" y2="127.702" stroke="white"/>
<line x1="149.322" y1="19.6175" x2="206.322" y2="67.6175" stroke="white"/>
<line x1="207.401" y1="88.2984" x2="178.401" y2="127.298" stroke="white"/>
<line x1="224.406" y1="88.7084" x2="252.406" y2="127.708" stroke="white"/>
<line x1="163.397" y1="149.303" x2="121.397" y2="204.303" stroke="white"/>
<line x1="181.408" y1="148.711" x2="220.408" y2="203.711" stroke="white"/>
</g>
</svg>
