<svg width="389" height="311" viewBox="0 0 389 311" fill="none" xmlns="http://www.w3.org/2000/svg">
<g filter="url(#filter0_d_265_701)">
<path d="M308.68 129C323.24 129 335.88 131.4 346.6 136.2C357.48 141 365.8 147.88 371.56 156.84C377.32 165.8 380.2 176.44 380.2 188.76C380.2 200.92 377.32 211.56 371.56 220.68C365.8 229.64 357.48 236.52 346.6 241.32C335.88 246.12 323.24 248.52 308.68 248.52H270.76V297H239.56V129H308.68ZM307.24 222.12C320.84 222.12 331.16 219.24 338.2 213.48C345.24 207.72 348.76 199.48 348.76 188.76C348.76 178.04 345.24 169.8 338.2 164.04C331.16 158.28 320.84 155.4 307.24 155.4H270.76V222.12H307.24Z" fill="url(#paint0_linear_265_701)"/>
</g>
<path d="M0 130H23.5887V270.757H90V297H30C13.4315 297 0 283.569 0 267V130Z" fill="#FDFBFC"/>
<path d="M280.48 193.584V189.232L294.784 180.624V185.744L284.448 191.312L294.784 197.008V202.128L280.48 193.584ZM299.473 202L307.217 178.064H312.049L304.273 202H299.473ZM331.035 193.584L316.731 202.128V197.008L327.067 191.312L316.731 185.744V180.624L331.035 189.232V193.584Z" fill="#3BA05F"/>
<path d="M147.819 0.5C153.644 0.500239 158.364 5.20497 158.364 11.0039C158.363 16.8026 153.644 21.5066 147.819 21.5068C141.993 21.5068 137.273 16.8028 137.273 11.0039C137.273 5.20482 141.993 0.5 147.819 0.5Z" fill="#3BA05F" stroke="#3BA05F"/>
<path d="M98.3186 46.1438C104.144 46.144 108.864 50.8488 108.864 56.6477C108.863 62.4464 104.144 67.1504 98.3186 67.1506C92.4929 67.1506 87.773 62.4466 87.7727 56.6477C87.7727 50.8486 92.4927 46.1438 98.3186 46.1438Z" fill="#FDFBFC" stroke="#FDFBFC"/>
<path d="M196.91 46.1438C202.735 46.144 207.454 50.8488 207.454 56.6477C207.454 62.4464 202.735 67.1504 196.91 67.1506C191.084 67.1506 186.364 62.4466 186.364 56.6477C186.364 50.8486 191.084 46.1438 196.91 46.1438Z" fill="#3BA05F" stroke="#3BA05F"/>
<path d="M225.955 97.4932C231.781 97.4934 236.5 102.198 236.5 107.997C236.5 113.796 231.78 118.5 225.955 118.5C220.129 118.5 215.409 113.796 215.409 107.997C215.409 102.198 220.129 97.4932 225.955 97.4932Z" fill="#3BA05F" stroke="#3BA05F"/>
<path d="M169.91 97.4932C175.735 97.4934 180.454 102.198 180.454 107.997C180.454 113.796 175.735 118.5 169.91 118.5C164.084 118.5 159.364 113.796 159.364 107.997C159.364 102.198 164.084 97.4932 169.91 97.4932Z" fill="#3BA05F" stroke="#3BA05F"/>
<path d="M125.728 97.4932C131.553 97.4934 136.273 102.198 136.273 107.997C136.272 113.796 131.553 118.5 125.728 118.5C119.902 118.5 115.182 113.796 115.182 107.997C115.182 102.198 119.902 97.4932 125.728 97.4932Z" fill="#FDFBFC" stroke="#FDFBFC"/>
<path d="M68.0459 97.4932C73.8716 97.4934 78.5908 102.198 78.5908 107.997C78.5906 113.796 73.8714 118.5 68.0459 118.5C62.2202 118.5 57.5003 113.796 57.5 107.997C57.5 102.198 62.22 97.4932 68.0459 97.4932Z" fill="#FDFBFC" stroke="#FDFBFC"/>
<line y1="-2.5" x2="43.9582" y2="-2.5" transform="matrix(0.735203 -0.677847 0.680636 0.732621 107.727 50.1736)" stroke="url(#paint1_linear_265_701)" stroke-width="5"/>
<line y1="-2.5" x2="44.2034" y2="-2.5" transform="matrix(-0.731124 -0.682244 0.685021 -0.728523 190.364 47.2739)" stroke="#3BA05F" stroke-width="5"/>
<line y1="-2.5" x2="35.6462" y2="-2.5" transform="matrix(0.550869 -0.834592 0.836515 0.547944 73.7727 97.8082)" stroke="#FDFBFC" stroke-width="5"/>
<line y1="-2.5" x2="35.1209" y2="-2.5" transform="matrix(0.512515 -0.858678 0.86039 0.509636 174.409 97.8082)" stroke="#3BA05F" stroke-width="5"/>
<line y1="-2.5" x2="34.7716" y2="-2.5" transform="matrix(-0.517664 -0.855584 0.857324 -0.514777 124.5 95.7705)" stroke="#FDFBFC" stroke-width="5"/>
<line y1="-2.5" x2="35.7654" y2="-2.5" transform="matrix(-0.537594 -0.843204 0.845054 -0.534681 224.318 95.7705)" stroke="#3BA05F" stroke-width="5"/>
<path d="M138.138 256.073V171.757V169.08L137.693 166.627L136.802 163.281L134.352 157.704L132.793 154.358L131.457 152.574L125.667 145.436L121.658 141.867L116.759 138.521C113.908 136.737 113.789 136.737 114.086 136.96L109.855 134.952L90.0345 127.145L80.4583 124.023L74 121.346L76.4497 118L88.921 122.015L117.649 130.937L127.894 135.398L135.688 139.86C135.54 138.075 135.02 133.614 134.129 130.045C133.239 126.476 132.273 124.84 131.902 124.469L133.461 123.576L134.575 122.461L150.164 151.905L166.198 121.792L169.539 123.799L164.862 139.86L224.546 118.669L225.214 120.454L219.869 122.684L211.407 126.03L202.944 130.045L196.04 132.945L191.586 134.729L187.355 137.183L184.014 139.414L181.342 141.421L178.67 143.429L174.216 147.444L167.98 156.366L164.862 161.942L164.194 164.173L162.412 171.757V261.649L164.639 266.779L167.534 273.248L171.098 278.825L184.682 280.832L193.591 281.724L201.162 282.617L209.848 284.401L213.411 285.293L216.974 286.855L221.874 290.87L229 296H106.292L106.96 295.554L114.532 291.762C117.427 290.201 124.286 286.319 128.562 283.286C132.838 280.252 132.719 278.899 132.125 278.602L134.797 274.14L137.47 267.895L138.138 261.872V256.073Z" fill="url(#paint2_linear_265_701)"/>
<defs>
<filter id="filter0_d_265_701" x="235.56" y="129" width="148.64" height="176" filterUnits="userSpaceOnUse" color-interpolation-filters="sRGB">
<feFlood flood-opacity="0" result="BackgroundImageFix"/>
<feColorMatrix in="SourceAlpha" type="matrix" values="0 0 0 0 0 0 0 0 0 0 0 0 0 0 0 0 0 0 127 0" result="hardAlpha"/>
<feOffset dy="4"/>
<feGaussianBlur stdDeviation="2"/>
<feComposite in2="hardAlpha" operator="out"/>
<feColorMatrix type="matrix" values="0 0 0 0 0.0431373 0 0 0 0 0.403922 0 0 0 0 0.262745 0 0 0 1 0"/>
<feBlend mode="normal" in2="BackgroundImageFix" result="effect1_dropShadow_265_701"/>
<feBlend mode="normal" in="SourceGraphic" in2="effect1_dropShadow_265_701" result="shape"/>
</filter>
<linearGradient id="paint0_linear_265_701" x1="330.99" y1="180.21" x2="385.392" y2="108.229" gradientUnits="userSpaceOnUse">
<stop stop-color="#3BA05F"/>
<stop offset="1" stop-color="#0B6743"/>
</linearGradient>
<linearGradient id="paint1_linear_265_701" x1="13.0277" y1="-0.607923" x2="43.9637" y2="-0.423123" gradientUnits="userSpaceOnUse">
<stop stop-color="#FDFBFC"/>
<stop offset="1" stop-color="#0B6743"/>
</linearGradient>
<linearGradient id="paint2_linear_265_701" x1="160.408" y1="150.12" x2="197.621" y2="132.322" gradientUnits="userSpaceOnUse">
<stop stop-color="#FDFBFC"/>
<stop offset="1" stop-color="#3BA05F"/>
</linearGradient>
</defs>
</svg>
