<svg width="545" height="483" viewBox="0 0 545 483" fill="none" xmlns="http://www.w3.org/2000/svg">
<g filter="url(#filter0_d_262_674)">
<path d="M412.68 129C427.24 129 439.88 131.4 450.6 136.2C461.48 141 469.8 147.88 475.56 156.84C481.32 165.8 484.2 176.44 484.2 188.76C484.2 200.92 481.32 211.56 475.56 220.68C469.8 229.64 461.48 236.52 450.6 241.32C439.88 246.12 427.24 248.52 412.68 248.52H374.76V297H343.56V129H412.68ZM411.24 222.12C424.84 222.12 435.16 219.24 442.2 213.48C449.24 207.72 452.76 199.48 452.76 188.76C452.76 178.04 449.24 169.8 442.2 164.04C435.16 158.28 424.84 155.4 411.24 155.4H374.76V222.12H411.24Z" fill="url(#paint0_linear_262_674)"/>
</g>
<path d="M104 130H127.589V270.757H194V297H134C117.431 297 104 283.569 104 267V130Z" fill="#FDFBFC"/>
<path d="M384.48 193.584V189.232L398.784 180.624V185.744L388.448 191.312L398.784 197.008V202.128L384.48 193.584ZM403.473 202L411.217 178.064H416.049L408.273 202H403.473ZM435.035 193.584L420.731 202.128V197.008L431.067 191.312L420.731 185.744V180.624L435.035 189.232V193.584Z" fill="#3BA05F"/>
<path d="M143.725 348.7H149.6V351H140.875V333.625H143.725V348.7ZM167.458 347.45H160.183L158.933 351H155.958L162.183 333.6H165.483L171.708 351H168.708L167.458 347.45ZM166.658 345.125L163.833 337.05L160.983 345.125H166.658ZM188.715 342.075C189.648 342.242 190.44 342.733 191.09 343.55C191.74 344.367 192.065 345.292 192.065 346.325C192.065 347.208 191.832 348.008 191.365 348.725C190.915 349.425 190.257 349.983 189.39 350.4C188.523 350.8 187.515 351 186.365 351H179.415V333.625H186.04C187.223 333.625 188.24 333.825 189.09 334.225C189.94 334.625 190.582 335.167 191.015 335.85C191.448 336.517 191.665 337.267 191.665 338.1C191.665 339.1 191.398 339.933 190.865 340.6C190.332 341.267 189.615 341.758 188.715 342.075ZM182.265 340.925H185.79C186.723 340.925 187.448 340.717 187.965 340.3C188.498 339.867 188.765 339.25 188.765 338.45C188.765 337.667 188.498 337.058 187.965 336.625C187.448 336.175 186.723 335.95 185.79 335.95H182.265V340.925ZM186.115 348.675C187.082 348.675 187.84 348.442 188.39 347.975C188.94 347.508 189.215 346.858 189.215 346.025C189.215 345.175 188.923 344.5 188.34 344C187.757 343.5 186.982 343.25 186.015 343.25H182.265V348.675H186.115ZM208.087 351.175C206.47 351.175 204.979 350.8 203.612 350.05C202.262 349.283 201.187 348.225 200.387 346.875C199.604 345.508 199.212 343.975 199.212 342.275C199.212 340.575 199.604 339.05 200.387 337.7C201.187 336.35 202.262 335.3 203.612 334.55C204.979 333.783 206.47 333.4 208.087 333.4C209.72 333.4 211.212 333.783 212.562 334.55C213.929 335.3 215.004 336.35 215.787 337.7C216.57 339.05 216.962 340.575 216.962 342.275C216.962 343.975 216.57 345.508 215.787 346.875C215.004 348.225 213.929 349.283 212.562 350.05C211.212 350.8 209.72 351.175 208.087 351.175ZM208.087 348.7C209.237 348.7 210.262 348.442 211.162 347.925C212.062 347.392 212.762 346.642 213.262 345.675C213.779 344.692 214.037 343.558 214.037 342.275C214.037 340.992 213.779 339.867 213.262 338.9C212.762 337.933 212.062 337.192 211.162 336.675C210.262 336.158 209.237 335.9 208.087 335.9C206.937 335.9 205.912 336.158 205.012 336.675C204.112 337.192 203.404 337.933 202.887 338.9C202.387 339.867 202.137 340.992 202.137 342.275C202.137 343.558 202.387 344.692 202.887 345.675C203.404 346.642 204.112 347.392 205.012 347.925C205.912 348.442 206.937 348.7 208.087 348.7ZM233.792 351L229.792 344.05H227.617V351H224.767V333.625H230.767C232.1 333.625 233.225 333.858 234.142 334.325C235.075 334.792 235.767 335.417 236.217 336.2C236.683 336.983 236.917 337.858 236.917 338.825C236.917 339.958 236.583 340.992 235.917 341.925C235.267 342.842 234.258 343.467 232.892 343.8L237.192 351H233.792ZM227.617 341.775H230.767C231.833 341.775 232.633 341.508 233.167 340.975C233.717 340.442 233.992 339.725 233.992 338.825C233.992 337.925 233.725 337.225 233.192 336.725C232.658 336.208 231.85 335.95 230.767 335.95H227.617V341.775ZM256.038 347.45H248.763L247.513 351H244.538L250.763 333.6H254.063L260.288 351H257.288L256.038 347.45ZM255.238 345.125L252.413 337.05L249.563 345.125H255.238ZM279.219 333.625V335.95H274.594V351H271.744V335.95H267.094V333.625H279.219ZM295.03 351.175C293.414 351.175 291.922 350.8 290.555 350.05C289.205 349.283 288.13 348.225 287.33 346.875C286.547 345.508 286.155 343.975 286.155 342.275C286.155 340.575 286.547 339.05 287.33 337.7C288.13 336.35 289.205 335.3 290.555 334.55C291.922 333.783 293.414 333.4 295.03 333.4C296.664 333.4 298.155 333.783 299.505 334.55C300.872 335.3 301.947 336.35 302.73 337.7C303.514 339.05 303.905 340.575 303.905 342.275C303.905 343.975 303.514 345.508 302.73 346.875C301.947 348.225 300.872 349.283 299.505 350.05C298.155 350.8 296.664 351.175 295.03 351.175ZM295.03 348.7C296.18 348.7 297.205 348.442 298.105 347.925C299.005 347.392 299.705 346.642 300.205 345.675C300.722 344.692 300.98 343.558 300.98 342.275C300.98 340.992 300.722 339.867 300.205 338.9C299.705 337.933 299.005 337.192 298.105 336.675C297.205 336.158 296.18 335.9 295.03 335.9C293.88 335.9 292.855 336.158 291.955 336.675C291.055 337.192 290.347 337.933 289.83 338.9C289.33 339.867 289.08 340.992 289.08 342.275C289.08 343.558 289.33 344.692 289.83 345.675C290.347 346.642 291.055 347.392 291.955 347.925C292.855 348.442 293.88 348.7 295.03 348.7ZM297.605 329.9L292.08 332.625V330.525L297.605 327.475V329.9ZM320.735 351L316.735 344.05H314.56V351H311.71V333.625H317.71C319.043 333.625 320.168 333.858 321.085 334.325C322.018 334.792 322.71 335.417 323.16 336.2C323.627 336.983 323.86 337.858 323.86 338.825C323.86 339.958 323.527 340.992 322.86 341.925C322.21 342.842 321.202 343.467 319.835 343.8L324.135 351H320.735ZM314.56 341.775H317.71C318.777 341.775 319.577 341.508 320.11 340.975C320.66 340.442 320.935 339.725 320.935 338.825C320.935 337.925 320.668 337.225 320.135 336.725C319.602 336.208 318.793 335.95 317.71 335.95H314.56V341.775ZM335.356 333.625V351H332.506V333.625H335.356ZM352.023 351.175C350.406 351.175 348.914 350.8 347.548 350.05C346.198 349.283 345.123 348.225 344.323 346.875C343.539 345.508 343.148 343.975 343.148 342.275C343.148 340.575 343.539 339.05 344.323 337.7C345.123 336.35 346.198 335.3 347.548 334.55C348.914 333.783 350.406 333.4 352.023 333.4C353.656 333.4 355.148 333.783 356.498 334.55C357.864 335.3 358.939 336.35 359.723 337.7C360.506 339.05 360.898 340.575 360.898 342.275C360.898 343.975 360.506 345.508 359.723 346.875C358.939 348.225 357.864 349.283 356.498 350.05C355.148 350.8 353.656 351.175 352.023 351.175ZM352.023 348.7C353.173 348.7 354.198 348.442 355.098 347.925C355.998 347.392 356.698 346.642 357.198 345.675C357.714 344.692 357.973 343.558 357.973 342.275C357.973 340.992 357.714 339.867 357.198 338.9C356.698 337.933 355.998 337.192 355.098 336.675C354.198 336.158 353.173 335.9 352.023 335.9C350.873 335.9 349.848 336.158 348.948 336.675C348.048 337.192 347.339 337.933 346.823 338.9C346.323 339.867 346.073 340.992 346.073 342.275C346.073 343.558 346.323 344.692 346.823 345.675C347.339 346.642 348.048 347.392 348.948 347.925C349.848 348.442 350.873 348.7 352.023 348.7ZM385.871 333.625C387.721 333.625 389.338 333.983 390.721 334.7C392.121 335.4 393.196 336.417 393.946 337.75C394.713 339.067 395.096 340.608 395.096 342.375C395.096 344.142 394.713 345.675 393.946 346.975C393.196 348.275 392.121 349.275 390.721 349.975C389.338 350.658 387.721 351 385.871 351H380.196V333.625H385.871ZM385.871 348.675C387.905 348.675 389.463 348.125 390.546 347.025C391.63 345.925 392.171 344.375 392.171 342.375C392.171 340.358 391.63 338.783 390.546 337.65C389.463 336.517 387.905 335.95 385.871 335.95H383.046V348.675H385.871ZM405.771 335.925V341.025H411.771V343.35H405.771V348.675H412.521V351H402.921V333.6H412.521V335.925H405.771Z" fill="#FDFBFC"/>
<path d="M6.27 389.67H13.17V393H2.07V372.06H6.27V389.67ZM23.0395 372.06V393H18.8395V372.06H23.0395ZM48.0991 393H43.8991L34.3891 378.63V393H30.1891V372.03H34.3891L43.8991 386.43V372.03H48.0991V393ZM69.8297 378.36C69.3497 377.48 68.6897 376.81 67.8497 376.35C67.0097 375.89 66.0297 375.66 64.9097 375.66C63.6697 375.66 62.5697 375.94 61.6097 376.5C60.6497 377.06 59.8997 377.86 59.3597 378.9C58.8197 379.94 58.5497 381.14 58.5497 382.5C58.5497 383.9 58.8197 385.12 59.3597 386.16C59.9197 387.2 60.6897 388 61.6697 388.56C62.6497 389.12 63.7897 389.4 65.0897 389.4C66.6897 389.4 67.9997 388.98 69.0197 388.14C70.0397 387.28 70.7097 386.09 71.0297 384.57H63.8297V381.36H75.1697V385.02C74.8897 386.48 74.2897 387.83 73.3697 389.07C72.4497 390.31 71.2597 391.31 69.7997 392.07C68.3597 392.81 66.7397 393.18 64.9397 393.18C62.9197 393.18 61.0897 392.73 59.4497 391.83C57.8297 390.91 56.5497 389.64 55.6097 388.02C54.6897 386.4 54.2297 384.56 54.2297 382.5C54.2297 380.44 54.6897 378.6 55.6097 376.98C56.5497 375.34 57.8297 374.07 59.4497 373.17C61.0897 372.25 62.9097 371.79 64.9097 371.79C67.2697 371.79 69.3197 372.37 71.0597 373.53C72.7997 374.67 73.9997 376.28 74.6597 378.36H69.8297ZM85.417 372.06V385.02C85.417 386.44 85.787 387.53 86.527 388.29C87.267 389.03 88.307 389.4 89.647 389.4C91.007 389.4 92.057 389.03 92.797 388.29C93.537 387.53 93.907 386.44 93.907 385.02V372.06H98.137V384.99C98.137 386.77 97.747 388.28 96.967 389.52C96.207 390.74 95.177 391.66 93.877 392.28C92.597 392.9 91.167 393.21 89.587 393.21C88.027 393.21 86.607 392.9 85.327 392.28C84.067 391.66 83.067 390.74 82.327 389.52C81.587 388.28 81.217 386.77 81.217 384.99V372.06H85.417ZM118.035 389.01H109.695L108.315 393H103.905L111.435 372.03H116.325L123.855 393H119.415L118.035 389.01ZM116.895 385.65L113.865 376.89L110.835 385.65H116.895ZM144.25 378.36C143.77 377.48 143.11 376.81 142.27 376.35C141.43 375.89 140.45 375.66 139.33 375.66C138.09 375.66 136.99 375.94 136.03 376.5C135.07 377.06 134.32 377.86 133.78 378.9C133.24 379.94 132.97 381.14 132.97 382.5C132.97 383.9 133.24 385.12 133.78 386.16C134.34 387.2 135.11 388 136.09 388.56C137.07 389.12 138.21 389.4 139.51 389.4C141.11 389.4 142.42 388.98 143.44 388.14C144.46 387.28 145.13 386.09 145.45 384.57H138.25V381.36H149.59V385.02C149.31 386.48 148.71 387.83 147.79 389.07C146.87 390.31 145.68 391.31 144.22 392.07C142.78 392.81 141.16 393.18 139.36 393.18C137.34 393.18 135.51 392.73 133.87 391.83C132.25 390.91 130.97 389.64 130.03 388.02C129.11 386.4 128.65 384.56 128.65 382.5C128.65 380.44 129.11 378.6 130.03 376.98C130.97 375.34 132.25 374.07 133.87 373.17C135.51 372.25 137.33 371.79 139.33 371.79C141.69 371.79 143.74 372.37 145.48 373.53C147.22 374.67 148.42 376.28 149.08 378.36H144.25ZM159.897 375.45V380.7H166.947V384.03H159.897V389.58H167.847V393H155.697V372.03H167.847V375.45H159.897ZM197.494 372.06V393H193.294V379.38L187.684 393H184.504L178.864 379.38V393H174.664V372.06H179.434L186.094 387.63L192.754 372.06H197.494ZM222.115 372.06C224.315 372.06 226.245 372.49 227.905 373.35C229.585 374.21 230.875 375.44 231.775 377.04C232.695 378.62 233.155 380.46 233.155 382.56C233.155 384.66 232.695 386.5 231.775 388.08C230.875 389.64 229.585 390.85 227.905 391.71C226.245 392.57 224.315 393 222.115 393H214.795V372.06H222.115ZM221.965 389.43C224.165 389.43 225.865 388.83 227.065 387.63C228.265 386.43 228.865 384.74 228.865 382.56C228.865 380.38 228.265 378.68 227.065 377.46C225.865 376.22 224.165 375.6 221.965 375.6H218.995V389.43H221.965ZM243.499 375.45V380.7H250.549V384.03H243.499V389.58H251.449V393H239.299V372.03H251.449V375.45H243.499Z" fill="#FDFBFC"/>
<path d="M283.684 378.54C283.684 379.66 283.414 380.71 282.874 381.69C282.354 382.67 281.524 383.46 280.384 384.06C279.264 384.66 277.844 384.96 276.124 384.96H272.614V393H268.414V372.06H276.124C277.744 372.06 279.124 372.34 280.264 372.9C281.404 373.46 282.254 374.23 282.814 375.21C283.394 376.19 283.684 377.3 283.684 378.54ZM275.944 381.57C277.104 381.57 277.964 381.31 278.524 380.79C279.084 380.25 279.364 379.5 279.364 378.54C279.364 376.5 278.224 375.48 275.944 375.48H272.614V381.57H275.944ZM300.466 393L295.846 384.84H293.866V393H289.666V372.06H297.526C299.146 372.06 300.526 372.35 301.666 372.93C302.806 373.49 303.656 374.26 304.216 375.24C304.796 376.2 305.086 377.28 305.086 378.48C305.086 379.86 304.686 381.11 303.886 382.23C303.086 383.33 301.896 384.09 300.316 384.51L305.326 393H300.466ZM293.866 381.69H297.376C298.516 381.69 299.366 381.42 299.926 380.88C300.486 380.32 300.766 379.55 300.766 378.57C300.766 377.61 300.486 376.87 299.926 376.35C299.366 375.81 298.516 375.54 297.376 375.54H293.866V381.69ZM321.604 393.21C319.644 393.21 317.844 392.75 316.204 391.83C314.564 390.91 313.264 389.64 312.304 388.02C311.344 386.38 310.864 384.53 310.864 382.47C310.864 380.43 311.344 378.6 312.304 376.98C313.264 375.34 314.564 374.06 316.204 373.14C317.844 372.22 319.644 371.76 321.604 371.76C323.584 371.76 325.384 372.22 327.004 373.14C328.644 374.06 329.934 375.34 330.874 376.98C331.834 378.6 332.314 380.43 332.314 382.47C332.314 384.53 331.834 386.38 330.874 388.02C329.934 389.64 328.644 390.91 327.004 391.83C325.364 392.75 323.564 393.21 321.604 393.21ZM321.604 389.46C322.864 389.46 323.974 389.18 324.934 388.62C325.894 388.04 326.644 387.22 327.184 386.16C327.724 385.1 327.994 383.87 327.994 382.47C327.994 381.07 327.724 379.85 327.184 378.81C326.644 377.75 325.894 376.94 324.934 376.38C323.974 375.82 322.864 375.54 321.604 375.54C320.344 375.54 319.224 375.82 318.244 376.38C317.284 376.94 316.534 377.75 315.994 378.81C315.454 379.85 315.184 381.07 315.184 382.47C315.184 383.87 315.454 385.1 315.994 386.16C316.534 387.22 317.284 388.04 318.244 388.62C319.224 389.18 320.344 389.46 321.604 389.46ZM353.019 378.36C352.539 377.48 351.879 376.81 351.039 376.35C350.199 375.89 349.219 375.66 348.099 375.66C346.859 375.66 345.759 375.94 344.799 376.5C343.839 377.06 343.089 377.86 342.549 378.9C342.009 379.94 341.739 381.14 341.739 382.5C341.739 383.9 342.009 385.12 342.549 386.16C343.109 387.2 343.879 388 344.859 388.56C345.839 389.12 346.979 389.4 348.279 389.4C349.879 389.4 351.189 388.98 352.209 388.14C353.229 387.28 353.899 386.09 354.219 384.57H347.019V381.36H358.359V385.02C358.079 386.48 357.479 387.83 356.559 389.07C355.639 390.31 354.449 391.31 352.989 392.07C351.549 392.81 349.929 393.18 348.129 393.18C346.109 393.18 344.279 392.73 342.639 391.83C341.019 390.91 339.739 389.64 338.799 388.02C337.879 386.4 337.419 384.56 337.419 382.5C337.419 380.44 337.879 378.6 338.799 376.98C339.739 375.34 341.019 374.07 342.639 373.17C344.279 372.25 346.099 371.79 348.099 371.79C350.459 371.79 352.509 372.37 354.249 373.53C355.989 374.67 357.189 376.28 357.849 378.36H353.019ZM375.266 393L370.646 384.84H368.666V393H364.466V372.06H372.326C373.946 372.06 375.326 372.35 376.466 372.93C377.606 373.49 378.456 374.26 379.016 375.24C379.596 376.2 379.886 377.28 379.886 378.48C379.886 379.86 379.486 381.11 378.686 382.23C377.886 383.33 376.696 384.09 375.116 384.51L380.126 393H375.266ZM368.666 381.69H372.176C373.316 381.69 374.166 381.42 374.726 380.88C375.286 380.32 375.566 379.55 375.566 378.57C375.566 377.61 375.286 376.87 374.726 376.35C374.166 375.81 373.316 375.54 372.176 375.54H368.666V381.69ZM399.525 389.01H391.185L389.805 393H385.395L392.925 372.03H397.815L405.345 393H400.905L399.525 389.01ZM398.385 385.65L395.355 376.89L392.325 385.65H398.385ZM433.99 372.06V393H429.79V379.38L424.18 393H421L415.36 379.38V393H411.16V372.06H415.93L422.59 387.63L429.25 372.06H433.99ZM453.982 389.01H445.642L444.262 393H439.852L447.382 372.03H452.272L459.802 393H455.362L453.982 389.01ZM452.842 385.65L449.812 376.89L446.782 385.65H452.842ZM475.187 389.43C476.327 389.43 477.327 389.18 478.187 388.68C479.067 388.16 479.747 387.4 480.227 386.4H485.057C484.437 388.32 483.367 389.87 481.847 391.05C480.347 392.21 478.577 392.9 476.537 393.12V394.35C477.637 394.35 478.557 394.63 479.297 395.19C480.057 395.75 480.437 396.56 480.437 397.62C480.437 398.7 480.047 399.53 479.267 400.11C478.507 400.69 477.567 400.98 476.447 400.98H472.187V398.52H475.757C476.237 398.52 476.597 398.45 476.837 398.31C477.097 398.17 477.227 397.92 477.227 397.56C477.227 397.2 477.097 396.95 476.837 396.81C476.597 396.69 476.237 396.63 475.757 396.63H473.897V393.12C472.117 392.92 470.517 392.35 469.097 391.41C467.697 390.45 466.597 389.2 465.797 387.66C464.997 386.12 464.597 384.4 464.597 382.5C464.597 380.44 465.057 378.6 465.977 376.98C466.917 375.34 468.187 374.07 469.787 373.17C471.407 372.25 473.217 371.79 475.217 371.79C477.557 371.79 479.607 372.39 481.367 373.59C483.127 374.79 484.357 376.45 485.057 378.57H480.227C479.747 377.57 479.067 376.82 478.187 376.32C477.327 375.82 476.327 375.57 475.187 375.57C473.967 375.57 472.877 375.86 471.917 376.44C470.977 377 470.237 377.8 469.697 378.84C469.177 379.88 468.917 381.1 468.917 382.5C468.917 383.88 469.177 385.1 469.697 386.16C470.237 387.2 470.977 388.01 471.917 388.59C472.877 389.15 473.967 389.43 475.187 389.43ZM504.484 389.01H496.144L494.764 393H490.354L497.884 372.03H502.774L510.304 393H505.864L504.484 389.01ZM503.344 385.65L500.314 376.89L497.284 385.65H503.344ZM494.914 370.44C495.094 369.12 495.504 368.14 496.144 367.5C496.804 366.84 497.634 366.51 498.634 366.51C499.054 366.51 499.424 366.58 499.744 366.72C500.064 366.84 500.424 367.02 500.824 367.26C501.424 367.64 501.924 367.83 502.324 367.83C503.064 367.83 503.494 367.4 503.614 366.54H505.864C505.684 367.86 505.264 368.85 504.604 369.51C503.964 370.15 503.144 370.47 502.144 370.47C501.724 370.47 501.354 370.41 501.034 370.29C500.714 370.15 500.354 369.96 499.954 369.72C499.374 369.32 498.874 369.12 498.454 369.12C497.714 369.12 497.274 369.56 497.134 370.44H494.914ZM525.839 393.21C523.879 393.21 522.079 392.75 520.439 391.83C518.799 390.91 517.499 389.64 516.539 388.02C515.579 386.38 515.099 384.53 515.099 382.47C515.099 380.43 515.579 378.6 516.539 376.98C517.499 375.34 518.799 374.06 520.439 373.14C522.079 372.22 523.879 371.76 525.839 371.76C527.819 371.76 529.619 372.22 531.239 373.14C532.879 374.06 534.169 375.34 535.109 376.98C536.069 378.6 536.549 380.43 536.549 382.47C536.549 384.53 536.069 386.38 535.109 388.02C534.169 389.64 532.879 390.91 531.239 391.83C529.599 392.75 527.799 393.21 525.839 393.21ZM525.839 389.46C527.099 389.46 528.209 389.18 529.169 388.62C530.129 388.04 530.879 387.22 531.419 386.16C531.959 385.1 532.229 383.87 532.229 382.47C532.229 381.07 531.959 379.85 531.419 378.81C530.879 377.75 530.129 376.94 529.169 376.38C528.209 375.82 527.099 375.54 525.839 375.54C524.579 375.54 523.459 375.82 522.479 376.38C521.519 376.94 520.769 377.75 520.229 378.81C519.689 379.85 519.419 381.07 519.419 382.47C519.419 383.87 519.689 385.1 520.229 386.16C520.769 387.22 521.519 388.04 522.479 388.62C523.459 389.18 524.579 389.46 525.839 389.46Z" fill="#3BA05F"/>
<path d="M252.48 422.584V418.232L266.784 409.624V414.744L256.448 420.312L266.784 426.008V431.128L252.48 422.584ZM271.473 431L279.217 407.064H284.049L276.273 431H271.473ZM303.035 422.584L288.731 431.128V426.008L299.067 420.312L288.731 414.744V409.624L303.035 418.232V422.584Z" fill="#3BA05F"/>
<line x1="38" y1="419.5" x2="245" y2="419.5" stroke="#3BA05F" stroke-width="3"/>
<line x1="309" y1="419.5" x2="510" y2="419.5" stroke="#3BA05F" stroke-width="3"/>
<path d="M32.688 447.032V450.76H36.752V451.96H32.688V455.8H37.232V457H31.232V445.832H37.232V447.032H32.688ZM44.5711 457.112C43.8351 457.112 43.1738 456.984 42.5871 456.728C42.0111 456.461 41.5578 456.099 41.2271 455.64C40.8965 455.171 40.7258 454.632 40.7151 454.024H42.2671C42.3205 454.547 42.5338 454.989 42.9071 455.352C43.2911 455.704 43.8458 455.88 44.5711 455.88C45.2645 455.88 45.8085 455.709 46.2031 455.368C46.6085 455.016 46.8111 454.568 46.8111 454.024C46.8111 453.597 46.6938 453.251 46.4591 452.984C46.2245 452.717 45.9311 452.515 45.5791 452.376C45.2271 452.237 44.7525 452.088 44.1551 451.928C43.4191 451.736 42.8271 451.544 42.3791 451.352C41.9418 451.16 41.5631 450.861 41.2431 450.456C40.9338 450.04 40.7791 449.485 40.7791 448.792C40.7791 448.184 40.9338 447.645 41.2431 447.176C41.5525 446.707 41.9845 446.344 42.5391 446.088C43.1045 445.832 43.7498 445.704 44.4751 445.704C45.5205 445.704 46.3738 445.965 47.0351 446.488C47.7071 447.011 48.0858 447.704 48.1711 448.568H46.5711C46.5178 448.141 46.2938 447.768 45.8991 447.448C45.5045 447.117 44.9818 446.952 44.3311 446.952C43.7231 446.952 43.2271 447.112 42.8431 447.432C42.4591 447.741 42.2671 448.179 42.2671 448.744C42.2671 449.149 42.3791 449.48 42.6031 449.736C42.8378 449.992 43.1205 450.189 43.4511 450.328C43.7925 450.456 44.2671 450.605 44.8751 450.776C45.6111 450.979 46.2031 451.181 46.6511 451.384C47.0991 451.576 47.4831 451.88 47.8031 452.296C48.1231 452.701 48.2831 453.256 48.2831 453.96C48.2831 454.504 48.1391 455.016 47.8511 455.496C47.5631 455.976 47.1365 456.365 46.5711 456.664C46.0058 456.963 45.3391 457.112 44.5711 457.112ZM58.8898 445.848V447.032H55.8498V457H54.3938V447.032H51.3378V445.848H58.8898ZM68.154 457L65.498 452.44H63.738V457H62.282V445.848H65.882C66.7247 445.848 67.434 445.992 68.01 446.28C68.5967 446.568 69.034 446.957 69.322 447.448C69.61 447.939 69.754 448.499 69.754 449.128C69.754 449.896 69.53 450.573 69.082 451.16C68.6447 451.747 67.9833 452.136 67.098 452.328L69.898 457H68.154ZM63.738 451.272H65.882C66.6713 451.272 67.2633 451.08 67.658 450.696C68.0527 450.301 68.25 449.779 68.25 449.128C68.25 448.467 68.0527 447.955 67.658 447.592C67.274 447.229 66.682 447.048 65.882 447.048H63.738V451.272ZM75.0404 445.848V452.904C75.0404 453.896 75.2804 454.632 75.7604 455.112C76.251 455.592 76.9284 455.832 77.7924 455.832C78.6457 455.832 79.3124 455.592 79.7924 455.112C80.283 454.632 80.5284 453.896 80.5284 452.904V445.848H81.9844V452.888C81.9844 453.816 81.7977 454.6 81.4244 455.24C81.051 455.869 80.5444 456.339 79.9044 456.648C79.275 456.957 78.5657 457.112 77.7764 457.112C76.987 457.112 76.2724 456.957 75.6324 456.648C75.003 456.339 74.5017 455.869 74.1284 455.24C73.7657 454.6 73.5844 453.816 73.5844 452.888V445.848H75.0404ZM92.8773 445.848V447.032H89.8373V457H88.3813V447.032H85.3253V445.848H92.8773ZM97.6935 445.848V452.904C97.6935 453.896 97.9335 454.632 98.4135 455.112C98.9042 455.592 99.5815 455.832 100.445 455.832C101.299 455.832 101.965 455.592 102.445 455.112C102.936 454.632 103.181 453.896 103.181 452.904V445.848H104.637V452.888C104.637 453.816 104.451 454.6 104.077 455.24C103.704 455.869 103.197 456.339 102.557 456.648C101.928 456.957 101.219 457.112 100.429 457.112C99.6402 457.112 98.9255 456.957 98.2855 456.648C97.6562 456.339 97.1548 455.869 96.7815 455.24C96.4188 454.6 96.2375 453.816 96.2375 452.888V445.848H97.6935ZM114.538 457L111.882 452.44H110.122V457H108.666V445.848H112.266C113.109 445.848 113.818 445.992 114.394 446.28C114.981 446.568 115.418 446.957 115.706 447.448C115.994 447.939 116.138 448.499 116.138 449.128C116.138 449.896 115.914 450.573 115.466 451.16C115.029 451.747 114.368 452.136 113.482 452.328L116.282 457H114.538ZM110.122 451.272H112.266C113.056 451.272 113.648 451.08 114.042 450.696C114.437 450.301 114.634 449.779 114.634 449.128C114.634 448.467 114.437 447.955 114.042 447.592C113.658 447.229 113.066 447.048 112.266 447.048H110.122V451.272ZM126.593 454.52H121.729L120.833 457H119.297L123.329 445.912H125.009L129.025 457H127.489L126.593 454.52ZM126.177 453.336L124.161 447.704L122.145 453.336H126.177ZM135.918 457.112C135.182 457.112 134.521 456.984 133.934 456.728C133.358 456.461 132.905 456.099 132.574 455.64C132.243 455.171 132.073 454.632 132.062 454.024H133.614C133.667 454.547 133.881 454.989 134.254 455.352C134.638 455.704 135.193 455.88 135.918 455.88C136.611 455.88 137.155 455.709 137.55 455.368C137.955 455.016 138.158 454.568 138.158 454.024C138.158 453.597 138.041 453.251 137.806 452.984C137.571 452.717 137.278 452.515 136.926 452.376C136.574 452.237 136.099 452.088 135.502 451.928C134.766 451.736 134.174 451.544 133.726 451.352C133.289 451.16 132.91 450.861 132.59 450.456C132.281 450.04 132.126 449.485 132.126 448.792C132.126 448.184 132.281 447.645 132.59 447.176C132.899 446.707 133.331 446.344 133.886 446.088C134.451 445.832 135.097 445.704 135.822 445.704C136.867 445.704 137.721 445.965 138.382 446.488C139.054 447.011 139.433 447.704 139.518 448.568H137.918C137.865 448.141 137.641 447.768 137.246 447.448C136.851 447.117 136.329 446.952 135.678 446.952C135.07 446.952 134.574 447.112 134.19 447.432C133.806 447.741 133.614 448.179 133.614 448.744C133.614 449.149 133.726 449.48 133.95 449.736C134.185 449.992 134.467 450.189 134.798 450.328C135.139 450.456 135.614 450.605 136.222 450.776C136.958 450.979 137.55 451.181 137.998 451.384C138.446 451.576 138.83 451.88 139.15 452.296C139.47 452.701 139.63 453.256 139.63 453.96C139.63 454.504 139.486 455.016 139.198 455.496C138.91 455.976 138.483 456.365 137.918 456.664C137.353 456.963 136.686 457.112 135.918 457.112ZM152.71 445.848C153.926 445.848 154.977 446.077 155.862 446.536C156.758 446.984 157.441 447.629 157.91 448.472C158.39 449.315 158.63 450.307 158.63 451.448C158.63 452.589 158.39 453.581 157.91 454.424C157.441 455.256 156.758 455.896 155.862 456.344C154.977 456.781 153.926 457 152.71 457H149.238V445.848H152.71ZM152.71 455.8C154.15 455.8 155.249 455.421 156.006 454.664C156.764 453.896 157.142 452.824 157.142 451.448C157.142 450.061 156.758 448.979 155.99 448.2C155.233 447.421 154.14 447.032 152.71 447.032H150.694V455.8H152.71ZM163.607 447.032V450.76H167.671V451.96H163.607V455.8H168.151V457H162.151V445.832H168.151V447.032H163.607ZM181.291 445.848C182.507 445.848 183.558 446.077 184.443 446.536C185.339 446.984 186.022 447.629 186.491 448.472C186.971 449.315 187.211 450.307 187.211 451.448C187.211 452.589 186.971 453.581 186.491 454.424C186.022 455.256 185.339 455.896 184.443 456.344C183.558 456.781 182.507 457 181.291 457H177.819V445.848H181.291ZM181.291 455.8C182.731 455.8 183.83 455.421 184.587 454.664C185.345 453.896 185.723 452.824 185.723 451.448C185.723 450.061 185.339 448.979 184.571 448.2C183.814 447.421 182.721 447.032 181.291 447.032H179.275V455.8H181.291ZM197.324 454.52H192.46L191.564 457H190.028L194.06 445.912H195.74L199.756 457H198.22L197.324 454.52ZM196.908 453.336L194.892 447.704L192.876 453.336H196.908ZM206.585 445.848C207.801 445.848 208.852 446.077 209.737 446.536C210.633 446.984 211.316 447.629 211.785 448.472C212.265 449.315 212.505 450.307 212.505 451.448C212.505 452.589 212.265 453.581 211.785 454.424C211.316 455.256 210.633 455.896 209.737 456.344C208.852 456.781 207.801 457 206.585 457H203.113V445.848H206.585ZM206.585 455.8C208.025 455.8 209.124 455.421 209.881 454.664C210.639 453.896 211.017 452.824 211.017 451.448C211.017 450.061 210.633 448.979 209.865 448.2C209.108 447.421 208.015 447.032 206.585 447.032H204.569V455.8H206.585ZM221.082 457.112C220.047 457.112 219.103 456.872 218.25 456.392C217.396 455.901 216.719 455.224 216.218 454.36C215.727 453.485 215.482 452.504 215.482 451.416C215.482 450.328 215.727 449.352 216.218 448.488C216.719 447.613 217.396 446.936 218.25 446.456C219.103 445.965 220.047 445.72 221.082 445.72C222.127 445.72 223.076 445.965 223.93 446.456C224.783 446.936 225.455 447.608 225.946 448.472C226.436 449.336 226.682 450.317 226.682 451.416C226.682 452.515 226.436 453.496 225.946 454.36C225.455 455.224 224.783 455.901 223.93 456.392C223.076 456.872 222.127 457.112 221.082 457.112ZM221.082 455.848C221.86 455.848 222.559 455.667 223.178 455.304C223.807 454.941 224.298 454.424 224.65 453.752C225.012 453.08 225.194 452.301 225.194 451.416C225.194 450.52 225.012 449.741 224.65 449.08C224.298 448.408 223.812 447.891 223.194 447.528C222.575 447.165 221.871 446.984 221.082 446.984C220.292 446.984 219.588 447.165 218.97 447.528C218.351 447.891 217.86 448.408 217.498 449.08C217.146 449.741 216.97 450.52 216.97 451.416C216.97 452.301 217.146 453.08 217.498 453.752C217.86 454.424 218.351 454.941 218.97 455.304C219.599 455.667 220.303 455.848 221.082 455.848ZM233.74 457.112C233.004 457.112 232.343 456.984 231.756 456.728C231.18 456.461 230.727 456.099 230.396 455.64C230.065 455.171 229.895 454.632 229.884 454.024H231.436C231.489 454.547 231.703 454.989 232.076 455.352C232.46 455.704 233.015 455.88 233.74 455.88C234.433 455.88 234.977 455.709 235.372 455.368C235.777 455.016 235.98 454.568 235.98 454.024C235.98 453.597 235.863 453.251 235.628 452.984C235.393 452.717 235.1 452.515 234.748 452.376C234.396 452.237 233.921 452.088 233.324 451.928C232.588 451.736 231.996 451.544 231.548 451.352C231.111 451.16 230.732 450.861 230.412 450.456C230.103 450.04 229.948 449.485 229.948 448.792C229.948 448.184 230.103 447.645 230.412 447.176C230.721 446.707 231.153 446.344 231.708 446.088C232.273 445.832 232.919 445.704 233.644 445.704C234.689 445.704 235.543 445.965 236.204 446.488C236.876 447.011 237.255 447.704 237.34 448.568H235.74C235.687 448.141 235.463 447.768 235.068 447.448C234.673 447.117 234.151 446.952 233.5 446.952C232.892 446.952 232.396 447.112 232.012 447.432C231.628 447.741 231.436 448.179 231.436 448.744C231.436 449.149 231.548 449.48 231.772 449.736C232.007 449.992 232.289 450.189 232.62 450.328C232.961 450.456 233.436 450.605 234.044 450.776C234.78 450.979 235.372 451.181 235.82 451.384C236.268 451.576 236.652 451.88 236.972 452.296C237.292 452.701 237.452 453.256 237.452 453.96C237.452 454.504 237.308 455.016 237.02 455.496C236.732 455.976 236.305 456.365 235.74 456.664C235.175 456.963 234.508 457.112 233.74 457.112ZM406.474 454.52H401.61L400.714 457H399.178L403.21 445.912H404.89L408.906 457H407.37L406.474 454.52ZM406.058 453.336L404.042 447.704L402.026 453.336H406.058ZM413.719 455.816H417.623V457H412.263V445.848H413.719V455.816ZM429.218 449.08C428.908 448.429 428.46 447.928 427.874 447.576C427.287 447.213 426.604 447.032 425.826 447.032C425.047 447.032 424.343 447.213 423.714 447.576C423.095 447.928 422.604 448.44 422.242 449.112C421.89 449.773 421.714 450.541 421.714 451.416C421.714 452.291 421.89 453.059 422.242 453.72C422.604 454.381 423.095 454.893 423.714 455.256C424.343 455.608 425.047 455.784 425.826 455.784C426.914 455.784 427.81 455.459 428.514 454.808C429.218 454.157 429.628 453.277 429.746 452.168H425.298V450.984H431.298V452.104C431.212 453.021 430.924 453.864 430.434 454.632C429.943 455.389 429.298 455.992 428.498 456.44C427.698 456.877 426.807 457.096 425.826 457.096C424.791 457.096 423.847 456.856 422.994 456.376C422.14 455.885 421.463 455.208 420.962 454.344C420.471 453.48 420.226 452.504 420.226 451.416C420.226 450.328 420.471 449.352 420.962 448.488C421.463 447.613 422.14 446.936 422.994 446.456C423.847 445.965 424.791 445.72 425.826 445.72C427.01 445.72 428.055 446.013 428.962 446.6C429.879 447.187 430.546 448.013 430.962 449.08H429.218ZM439.879 457.112C438.844 457.112 437.9 456.872 437.047 456.392C436.193 455.901 435.516 455.224 435.015 454.36C434.524 453.485 434.279 452.504 434.279 451.416C434.279 450.328 434.524 449.352 435.015 448.488C435.516 447.613 436.193 446.936 437.047 446.456C437.9 445.965 438.844 445.72 439.879 445.72C440.924 445.72 441.873 445.965 442.727 446.456C443.58 446.936 444.252 447.608 444.743 448.472C445.233 449.336 445.479 450.317 445.479 451.416C445.479 452.515 445.233 453.496 444.743 454.36C444.252 455.224 443.58 455.901 442.727 456.392C441.873 456.872 440.924 457.112 439.879 457.112ZM439.879 455.848C440.657 455.848 441.356 455.667 441.975 455.304C442.604 454.941 443.095 454.424 443.447 453.752C443.809 453.08 443.991 452.301 443.991 451.416C443.991 450.52 443.809 449.741 443.447 449.08C443.095 448.408 442.609 447.891 441.991 447.528C441.372 447.165 440.668 446.984 439.879 446.984C439.089 446.984 438.385 447.165 437.767 447.528C437.148 447.891 436.657 448.408 436.295 449.08C435.943 449.741 435.767 450.52 435.767 451.416C435.767 452.301 435.943 453.08 436.295 453.752C436.657 454.424 437.148 454.941 437.767 455.304C438.396 455.667 439.1 455.848 439.879 455.848ZM454.873 457L452.217 452.44H450.457V457H449.001V445.848H452.601C453.443 445.848 454.153 445.992 454.729 446.28C455.315 446.568 455.753 446.957 456.041 447.448C456.329 447.939 456.473 448.499 456.473 449.128C456.473 449.896 456.249 450.573 455.801 451.16C455.363 451.747 454.702 452.136 453.817 452.328L456.617 457H454.873ZM450.457 451.272H452.601C453.39 451.272 453.982 451.08 454.377 450.696C454.771 450.301 454.969 449.779 454.969 449.128C454.969 448.467 454.771 447.955 454.377 447.592C453.993 447.229 453.401 447.048 452.601 447.048H450.457V451.272ZM461.791 445.848V457H460.335V445.848H461.791ZM472.737 445.848V447.032H469.697V457H468.241V447.032H465.185V445.848H472.737ZM487.441 445.928V457H485.985V448.744L482.305 457H481.281L477.585 448.728V457H476.129V445.928H477.697L481.793 455.08L485.889 445.928H487.441ZM496.566 457.112C495.531 457.112 494.587 456.872 493.734 456.392C492.881 455.901 492.203 455.224 491.702 454.36C491.211 453.485 490.966 452.504 490.966 451.416C490.966 450.328 491.211 449.352 491.702 448.488C492.203 447.613 492.881 446.936 493.734 446.456C494.587 445.965 495.531 445.72 496.566 445.72C497.611 445.72 498.561 445.965 499.414 446.456C500.267 446.936 500.939 447.608 501.43 448.472C501.921 449.336 502.166 450.317 502.166 451.416C502.166 452.515 501.921 453.496 501.43 454.36C500.939 455.224 500.267 455.901 499.414 456.392C498.561 456.872 497.611 457.112 496.566 457.112ZM496.566 455.848C497.345 455.848 498.043 455.667 498.662 455.304C499.291 454.941 499.782 454.424 500.134 453.752C500.497 453.08 500.678 452.301 500.678 451.416C500.678 450.52 500.497 449.741 500.134 449.08C499.782 448.408 499.297 447.891 498.678 447.528C498.059 447.165 497.355 446.984 496.566 446.984C495.777 446.984 495.073 447.165 494.454 447.528C493.835 447.891 493.345 448.408 492.982 449.08C492.63 449.741 492.454 450.52 492.454 451.416C492.454 452.301 492.63 453.08 492.982 453.752C493.345 454.424 493.835 454.941 494.454 455.304C495.083 455.667 495.787 455.848 496.566 455.848ZM509.224 457.112C508.488 457.112 507.827 456.984 507.24 456.728C506.664 456.461 506.211 456.099 505.88 455.64C505.55 455.171 505.379 454.632 505.368 454.024H506.92C506.974 454.547 507.187 454.989 507.56 455.352C507.944 455.704 508.499 455.88 509.224 455.88C509.918 455.88 510.462 455.709 510.856 455.368C511.262 455.016 511.464 454.568 511.464 454.024C511.464 453.597 511.347 453.251 511.112 452.984C510.878 452.717 510.584 452.515 510.232 452.376C509.88 452.237 509.406 452.088 508.808 451.928C508.072 451.736 507.48 451.544 507.032 451.352C506.595 451.16 506.216 450.861 505.896 450.456C505.587 450.04 505.432 449.485 505.432 448.792C505.432 448.184 505.587 447.645 505.896 447.176C506.206 446.707 506.638 446.344 507.192 446.088C507.758 445.832 508.403 445.704 509.128 445.704C510.174 445.704 511.027 445.965 511.688 446.488C512.36 447.011 512.739 447.704 512.824 448.568H511.224C511.171 448.141 510.947 447.768 510.552 447.448C510.158 447.117 509.635 446.952 508.984 446.952C508.376 446.952 507.88 447.112 507.496 447.432C507.112 447.741 506.92 448.179 506.92 448.744C506.92 449.149 507.032 449.48 507.256 449.736C507.491 449.992 507.774 450.189 508.104 450.328C508.446 450.456 508.92 450.605 509.528 450.776C510.264 450.979 510.856 451.181 511.304 451.384C511.752 451.576 512.136 451.88 512.456 452.296C512.776 452.701 512.936 453.256 512.936 453.96C512.936 454.504 512.792 455.016 512.504 455.496C512.216 455.976 511.79 456.365 511.224 456.664C510.659 456.963 509.992 457.112 509.224 457.112Z" fill="#FDFBFC"/>
<path d="M294.712 454.52H289.848L288.952 457H287.416L291.448 445.912H293.128L297.144 457H295.608L294.712 454.52ZM294.296 453.336L292.28 447.704L290.264 453.336H294.296ZM293.848 443.432L290.44 445.256V444.168L293.848 442.168V443.432ZM306.373 457L303.717 452.44H301.957V457H300.501V445.848H304.101C304.943 445.848 305.653 445.992 306.229 446.28C306.815 446.568 307.253 446.957 307.541 447.448C307.829 447.939 307.973 448.499 307.973 449.128C307.973 449.896 307.749 450.573 307.301 451.16C306.863 451.747 306.202 452.136 305.317 452.328L308.117 457H306.373ZM301.957 451.272H304.101C304.89 451.272 305.482 451.08 305.877 450.696C306.271 450.301 306.469 449.779 306.469 449.128C306.469 448.467 306.271 447.955 305.877 447.592C305.493 447.229 304.901 447.048 304.101 447.048H301.957V451.272ZM321.051 445.848L316.843 457H315.163L310.955 445.848H312.507L316.011 455.464L319.515 445.848H321.051ZM329.304 457.112C328.269 457.112 327.325 456.872 326.472 456.392C325.618 455.901 324.941 455.224 324.44 454.36C323.949 453.485 323.704 452.504 323.704 451.416C323.704 450.328 323.949 449.352 324.44 448.488C324.941 447.613 325.618 446.936 326.472 446.456C327.325 445.965 328.269 445.72 329.304 445.72C330.349 445.72 331.298 445.965 332.152 446.456C333.005 446.936 333.677 447.608 334.168 448.472C334.658 449.336 334.904 450.317 334.904 451.416C334.904 452.515 334.658 453.496 334.168 454.36C333.677 455.224 333.005 455.901 332.152 456.392C331.298 456.872 330.349 457.112 329.304 457.112ZM329.304 455.848C330.082 455.848 330.781 455.667 331.4 455.304C332.029 454.941 332.52 454.424 332.872 453.752C333.234 453.08 333.416 452.301 333.416 451.416C333.416 450.52 333.234 449.741 332.872 449.08C332.52 448.408 332.034 447.891 331.416 447.528C330.797 447.165 330.093 446.984 329.304 446.984C328.514 446.984 327.81 447.165 327.192 447.528C326.573 447.891 326.082 448.408 325.72 449.08C325.368 449.741 325.192 450.52 325.192 451.416C325.192 452.301 325.368 453.08 325.72 453.752C326.082 454.424 326.573 454.941 327.192 455.304C327.821 455.667 328.525 455.848 329.304 455.848ZM344.298 457L341.642 452.44H339.882V457H338.426V445.848H342.026C342.868 445.848 343.578 445.992 344.154 446.28C344.74 446.568 345.178 446.957 345.466 447.448C345.754 447.939 345.898 448.499 345.898 449.128C345.898 449.896 345.674 450.573 345.226 451.16C344.788 451.747 344.127 452.136 343.242 452.328L346.042 457H344.298ZM339.882 451.272H342.026C342.815 451.272 343.407 451.08 343.802 450.696C344.196 450.301 344.394 449.779 344.394 449.128C344.394 448.467 344.196 447.955 343.802 447.592C343.418 447.229 342.826 447.048 342.026 447.048H339.882V451.272ZM351.216 447.032V450.76H355.28V451.96H351.216V455.8H355.76V457H349.76V445.832H355.76V447.032H351.216ZM363.099 457.112C362.363 457.112 361.702 456.984 361.115 456.728C360.539 456.461 360.086 456.099 359.755 455.64C359.425 455.171 359.254 454.632 359.243 454.024H360.795C360.849 454.547 361.062 454.989 361.435 455.352C361.819 455.704 362.374 455.88 363.099 455.88C363.793 455.88 364.337 455.709 364.731 455.368C365.137 455.016 365.339 454.568 365.339 454.024C365.339 453.597 365.222 453.251 364.987 452.984C364.753 452.717 364.459 452.515 364.107 452.376C363.755 452.237 363.281 452.088 362.683 451.928C361.947 451.736 361.355 451.544 360.907 451.352C360.47 451.16 360.091 450.861 359.771 450.456C359.462 450.04 359.307 449.485 359.307 448.792C359.307 448.184 359.462 447.645 359.771 447.176C360.081 446.707 360.513 446.344 361.067 446.088C361.633 445.832 362.278 445.704 363.003 445.704C364.049 445.704 364.902 445.965 365.563 446.488C366.235 447.011 366.614 447.704 366.699 448.568H365.099C365.046 448.141 364.822 447.768 364.427 447.448C364.033 447.117 363.51 446.952 362.859 446.952C362.251 446.952 361.755 447.112 361.371 447.432C360.987 447.741 360.795 448.179 360.795 448.744C360.795 449.149 360.907 449.48 361.131 449.736C361.366 449.992 361.649 450.189 361.979 450.328C362.321 450.456 362.795 450.605 363.403 450.776C364.139 450.979 364.731 451.181 365.179 451.384C365.627 451.576 366.011 451.88 366.331 452.296C366.651 452.701 366.811 453.256 366.811 453.96C366.811 454.504 366.667 455.016 366.379 455.496C366.091 455.976 365.665 456.365 365.099 456.664C364.534 456.963 363.867 457.112 363.099 457.112Z" fill="#3BA05F"/>
<circle cx="265.5" cy="450.5" r="2.5" fill="#3BA05F"/>
<circle cx="375.5" cy="450.5" r="2.5" fill="#FDFBFC"/>
<path d="M251.819 0.5C257.644 0.500239 262.364 5.20497 262.364 11.0039C262.363 16.8026 257.644 21.5066 251.819 21.5068C245.993 21.5068 241.273 16.8028 241.273 11.0039C241.273 5.20482 245.993 0.5 251.819 0.5Z" fill="#3BA05F" stroke="#3BA05F"/>
<path d="M202.319 46.1438C208.144 46.144 212.864 50.8488 212.864 56.6477C212.863 62.4464 208.144 67.1504 202.319 67.1506C196.493 67.1506 191.773 62.4466 191.773 56.6477C191.773 50.8486 196.493 46.1438 202.319 46.1438Z" fill="#FDFBFC" stroke="#FDFBFC"/>
<path d="M300.91 46.1438C306.735 46.144 311.454 50.8488 311.454 56.6477C311.454 62.4464 306.735 67.1504 300.91 67.1506C295.084 67.1506 290.364 62.4466 290.364 56.6477C290.364 50.8486 295.084 46.1438 300.91 46.1438Z" fill="#3BA05F" stroke="#3BA05F"/>
<path d="M329.955 97.4932C335.781 97.4934 340.5 102.198 340.5 107.997C340.5 113.796 335.781 118.5 329.955 118.5C324.129 118.5 319.409 113.796 319.409 107.997C319.409 102.198 324.129 97.4932 329.955 97.4932Z" fill="#3BA05F" stroke="#3BA05F"/>
<path d="M273.91 97.4932C279.735 97.4934 284.454 102.198 284.454 107.997C284.454 113.796 279.735 118.5 273.91 118.5C268.084 118.5 263.364 113.796 263.364 107.997C263.364 102.198 268.084 97.4932 273.91 97.4932Z" fill="#3BA05F" stroke="#3BA05F"/>
<path d="M229.728 97.4932C235.553 97.4934 240.273 102.198 240.273 107.997C240.272 113.796 235.553 118.5 229.728 118.5C223.902 118.5 219.182 113.796 219.182 107.997C219.182 102.198 223.902 97.4932 229.728 97.4932Z" fill="#FDFBFC" stroke="#FDFBFC"/>
<path d="M172.046 97.4932C177.872 97.4934 182.591 102.198 182.591 107.997C182.591 113.796 177.871 118.5 172.046 118.5C166.22 118.5 161.5 113.796 161.5 107.997C161.5 102.198 166.22 97.4932 172.046 97.4932Z" fill="#FDFBFC" stroke="#FDFBFC"/>
<line y1="-2.5" x2="43.9582" y2="-2.5" transform="matrix(0.735203 -0.677847 0.680636 0.732621 211.727 50.1736)" stroke="url(#paint1_linear_262_674)" stroke-width="5"/>
<line y1="-2.5" x2="44.2034" y2="-2.5" transform="matrix(-0.731124 -0.682244 0.685021 -0.728523 294.364 47.2739)" stroke="#3BA05F" stroke-width="5"/>
<line y1="-2.5" x2="35.6462" y2="-2.5" transform="matrix(0.550869 -0.834592 0.836515 0.547944 177.773 97.8082)" stroke="#FDFBFC" stroke-width="5"/>
<line y1="-2.5" x2="35.1209" y2="-2.5" transform="matrix(0.512515 -0.858678 0.86039 0.509636 278.409 97.8082)" stroke="#3BA05F" stroke-width="5"/>
<line y1="-2.5" x2="34.7716" y2="-2.5" transform="matrix(-0.517664 -0.855584 0.857324 -0.514777 228.5 95.7705)" stroke="#FDFBFC" stroke-width="5"/>
<line y1="-2.5" x2="35.7654" y2="-2.5" transform="matrix(-0.537594 -0.843204 0.845054 -0.534681 328.318 95.7705)" stroke="#3BA05F" stroke-width="5"/>
<path d="M242.138 256.073V171.757V169.08L241.693 166.627L240.802 163.281L238.352 157.704L236.793 154.358L235.457 152.574L229.667 145.436L225.658 141.867L220.759 138.521C217.908 136.737 217.789 136.737 218.086 136.96L213.855 134.952L194.034 127.145L184.458 124.023L178 121.346L180.45 118L192.921 122.015L221.649 130.937L231.894 135.398L239.688 139.86C239.54 138.075 239.02 133.614 238.129 130.045C237.239 126.476 236.273 124.84 235.902 124.469L237.461 123.576L238.575 122.461L254.164 151.905L270.198 121.792L273.539 123.799L268.862 139.86L328.546 118.669L329.214 120.454L323.869 122.684L315.407 126.03L306.944 130.045L300.04 132.945L295.586 134.729L291.355 137.183L288.014 139.414L285.342 141.421L282.67 143.429L278.216 147.444L271.98 156.366L268.862 161.942L268.194 164.173L266.412 171.757V261.649L268.639 266.779L271.534 273.248L275.098 278.825L288.682 280.832L297.591 281.724L305.162 282.617L313.848 284.401L317.411 285.293L320.974 286.855L325.874 290.87L333 296H210.292L210.96 295.554L218.532 291.762C221.427 290.201 228.286 286.319 232.562 283.286C236.838 280.252 236.719 278.899 236.125 278.602L238.797 274.14L241.47 267.895L242.138 261.872V256.073Z" fill="url(#paint2_linear_262_674)"/>
<defs>
<filter id="filter0_d_262_674" x="339.56" y="129" width="148.64" height="176" filterUnits="userSpaceOnUse" color-interpolation-filters="sRGB">
<feFlood flood-opacity="0" result="BackgroundImageFix"/>
<feColorMatrix in="SourceAlpha" type="matrix" values="0 0 0 0 0 0 0 0 0 0 0 0 0 0 0 0 0 0 127 0" result="hardAlpha"/>
<feOffset dy="4"/>
<feGaussianBlur stdDeviation="2"/>
<feComposite in2="hardAlpha" operator="out"/>
<feColorMatrix type="matrix" values="0 0 0 0 0.0431373 0 0 0 0 0.403922 0 0 0 0 0.262745 0 0 0 1 0"/>
<feBlend mode="normal" in2="BackgroundImageFix" result="effect1_dropShadow_262_674"/>
<feBlend mode="normal" in="SourceGraphic" in2="effect1_dropShadow_262_674" result="shape"/>
</filter>
<linearGradient id="paint0_linear_262_674" x1="434.99" y1="180.21" x2="489.392" y2="108.229" gradientUnits="userSpaceOnUse">
<stop stop-color="#3BA05F"/>
<stop offset="1" stop-color="#0B6743"/>
</linearGradient>
<linearGradient id="paint1_linear_262_674" x1="13.0277" y1="-0.607923" x2="43.9637" y2="-0.423123" gradientUnits="userSpaceOnUse">
<stop stop-color="#FDFBFC"/>
<stop offset="1" stop-color="#0B6743"/>
</linearGradient>
<linearGradient id="paint2_linear_262_674" x1="264.408" y1="150.12" x2="301.621" y2="132.322" gradientUnits="userSpaceOnUse">
<stop stop-color="#FDFBFC"/>
<stop offset="1" stop-color="#3BA05F"/>
</linearGradient>
</defs>
</svg>
